<svg id="Layer_1" data-name="Layer 1" xmlns="http://www.w3.org/2000/svg" viewBox="0 0 400 400"><defs><style>.cls-1{fill:#fff;}.cls-2{fill:#cecece;}.cls-3{fill:#afafaf;}.cls-4{opacity:0.5;}</style></defs><path class="cls-1" d="M400.38,199.74c0,110.45-89.55,200-200,200s-200-89.55-200-200,89.54-200,200-200S400.38,89.28,400.38,199.74Z"/><path class="cls-2" d="M368.93,199.74A168.56,168.56,0,1,1,200.38,31.18,168.55,168.55,0,0,1,368.93,199.74Z"/><path class="cls-3" d="M49.28,205A168.54,168.54,0,0,1,257.8,41.23,168.58,168.58,0,1,0,160.43,363.5,168.64,168.64,0,0,1,49.28,205Z"/><g class="cls-4"><path class="cls-1" d="M92.36,250.52c1.09-.14,9.52-1.41,14.07-7.33,4.86-6.34,3.44-15.6,3.44-15.6s-9.33,1-14.18,7.34c-4,5.17-3.77,12.27-3.56,14.72-.95-2.26-4.1-8.63-10-11.33-7.28-3.31-16,.18-16,.18s3.09,8.85,10.37,12.16C83.3,253.75,91.34,250.9,92.36,250.52Z"/><path class="cls-1" d="M115.56,262.74c2.91-7.43-1-15.93-1-15.93s-8.68,3.53-11.62,11c-2.38,6.06-.23,12.83.66,15.13-1.55-1.92-6.34-7.18-12.77-8.14-7.91-1.17-15.31,4.57-15.31,4.57s5.4,7.65,13.31,8.84c7.4,1.1,14.35-3.86,15.22-4.5C105,273.24,112.8,269.7,115.56,262.74Z"/><path class="cls-1" d="M121.28,292.07c.86-.68,7.47-6.07,8.36-13.48,1-7.93-5-15.18-5-15.18S117.14,269,116.18,277c-.77,6.46,3,12.45,4.47,14.47-2-1.47-8-5.34-14.42-4.64-8,.85-13.64,8.28-13.64,8.28s7.15,6,15.1,5.18C115.12,299.46,120.59,292.91,121.28,292.07Z"/><path class="cls-1" d="M146.1,290c-.37-8-7.46-14.13-7.46-14.13s-6.46,6.79-6.1,14.76c.32,6.5,5.05,11.78,6.81,13.53-2.21-1.11-8.71-3.95-15-2.18-7.68,2.18-12.07,10.45-12.07,10.45s8.06,4.77,15.76,2.59c7.19-2,11.5-9.39,12-10.34C140.81,303.84,146.43,297.42,146.1,290Z"/><path class="cls-1" d="M163.85,295.9c-2.8-7.49-11.41-11.18-11.41-11.18s-4.08,8.43-1.29,15.92c2.27,6.09,8.4,9.68,10.61,10.8-2.46-.39-9.52-1.1-14.94,2.5-6.66,4.41-8.3,13.64-8.3,13.64s9.12,2.08,15.79-2.34c6.22-4.13,8.07-12.46,8.29-13.51C163.07,310.72,166.47,302.9,163.85,295.9Z"/><path class="cls-1" d="M70.28,225.67c6.27,4.05,14.66,2.4,15.71,2.17,1.1,0,9.63,0,15-5.19,5.74-5.57,5.69-14.94,5.69-14.94s-9.37-.36-15.12,5.19c-4.67,4.54-5.48,11.57-5.63,14-.63-2.39-2.82-9.15-8.28-12.67-6.71-4.34-15.83-2.16-15.83-2.16S63.56,221.33,70.28,225.67Z"/><path class="cls-1" d="M85.5,202.87c1.06.28,9.34,2.27,15.8-1.51,6.87-4,9-13.18,9-13.18s-9-2.56-15.91,1.49c-5.62,3.3-8.08,10-8.79,12.31,0-2.47-.57-9.55-5-14.27-5.5-5.8-14.89-5.83-14.89-5.83s-.45,9.36,5,15.16C75.9,202.47,84.42,202.85,85.5,202.87Z"/><path class="cls-1" d="M91.26,178.14c.94.6,8.17,5.08,15.47,3.49,7.8-1.68,12.71-9.68,12.71-9.68s-7.77-5.25-15.57-3.56c-6.37,1.37-10.79,6.93-12.23,8.94.74-2.37,2.46-9.25-.33-15.13C87.92,155,79,152,79,152s-3.37,8.75,0,16C82.25,174.75,90.25,177.79,91.26,178.14Z"/><path class="cls-1" d="M321.26,238.32c-5.91,2.7-9.06,9.07-10,11.33.21-2.45.43-9.55-3.53-14.72-4.88-6.33-14.19-7.34-14.19-7.34s-1.43,9.26,3.43,15.6c4.55,5.92,13,7.19,14.06,7.33,1,.38,9.08,3.23,15.89.14,7.26-3.31,10.35-12.16,10.35-12.16S328.54,235,321.26,238.32Z"/><path class="cls-1" d="M312.55,264.76c-6.43,1-11.21,6.22-12.77,8.14.91-2.3,3.05-9.07.66-15.13-2.94-7.43-11.62-11-11.62-11s-3.92,8.5-1,15.93c2.74,7,10.5,10.5,11.52,10.93.86.64,7.82,5.6,15.22,4.5,7.89-1.19,13.3-8.84,13.3-8.84S320.46,263.59,312.55,264.76Z"/><path class="cls-1" d="M297.14,286.79c-6.47-.7-12.42,3.17-14.4,4.64,1.43-2,5.24-8,4.45-14.47-1-7.94-8.47-13.55-8.47-13.55s-6,7.25-5,15.18c.89,7.41,7.52,12.8,8.38,13.48.67.84,6.14,7.39,13.57,8.18,7.95.86,15.12-5.18,15.12-5.18S305.1,287.64,297.14,286.79Z"/><path class="cls-1" d="M279,301.94c-6.27-1.77-12.78,1.07-15,2.18,1.75-1.75,6.48-7,6.8-13.53.38-8-6.1-14.76-6.1-14.76S257.66,282,257.28,290c-.34,7.46,5.3,13.88,6,14.68.54.95,4.83,8.31,12,10.34,7.7,2.18,15.76-2.59,15.76-2.59S286.7,304.12,279,301.94Z"/><path class="cls-1" d="M256.56,313.94c-5.42-3.6-12.49-2.89-14.93-2.5,2.21-1.12,8.33-4.71,10.61-10.8,2.78-7.49-1.3-15.92-1.3-15.92s-8.61,3.69-11.41,11.18c-2.62,7,.79,14.82,1.24,15.83.22,1,2.07,9.38,8.3,13.51,6.67,4.42,15.81,2.34,15.81,2.34S263.21,318.35,256.56,313.94Z"/><path class="cls-1" d="M325.75,214.28c-5.45,3.52-7.65,10.28-8.27,12.67-.14-2.48-1-9.51-5.65-14-5.73-5.55-15.1-5.19-15.1-5.19s-.07,9.37,5.67,14.94c5.37,5.18,13.88,5.21,15,5.19,1.05.23,9.44,1.88,15.71-2.17,6.71-4.34,8.47-13.55,8.47-13.55S332.47,209.94,325.75,214.28Z"/><path class="cls-1" d="M322.8,187.71c-4.47,4.72-5,11.8-5,14.27-.73-2.36-3.19-9-8.8-12.31-6.91-4-15.9-1.49-15.9-1.49s2.14,9.14,9,13.18c6.44,3.78,14.72,1.79,15.79,1.51,1.08,0,9.63-.4,14.77-5.83,5.48-5.8,5-15.16,5-15.16S328.29,181.91,322.8,187.71Z"/><path class="cls-1" d="M299.52,168.39C291.7,166.7,284,172,284,172s4.88,8,12.7,9.68c7.28,1.59,14.53-2.89,15.47-3.49,1-.35,9-3.39,12.18-10.16,3.41-7.23.05-16,.05-16s-8.91,3-12.3,10.2c-2.79,5.88-1.07,12.76-.33,15.13C310.3,175.32,305.88,169.76,299.52,168.39Z"/></g><path class="cls-1" d="M189.36,241.88h53.22v19.25h-96l49.61-57q7.31-8.53,12.26-14.77A113.39,113.39,0,0,0,216,178.86q5.26-8.25,5.27-14.85a20.66,20.66,0,0,0-7-15.91,24.85,24.85,0,0,0-17.4-6.42q-21.66,0-24.8,24.35H150.58q5.19-42.89,45.63-42.89,19.53,0,32.76,11.78T242.3,164.1a42.67,42.67,0,0,1-6.2,21.71A106.72,106.72,0,0,1,226.89,199q-6.06,7.59-15.32,18Z"/></svg>